<?xml version="1.0" encoding="utf-8"?>
<!-- Generator: Adobe Illustrator 15.0.0, SVG Export Plug-In . SVG Version: 6.00 Build 0)  -->
<!DOCTYPE svg PUBLIC "-//W3C//DTD SVG 1.1//EN" "http://www.w3.org/Graphics/SVG/1.1/DTD/svg11.dtd">
<svg version="1.1" id="Layer_1" xmlns="http://www.w3.org/2000/svg" xmlns:xlink="http://www.w3.org/1999/xlink" x="0px" y="0px"
	 width="276.147px" height="75.535px" viewBox="0 0 276.147 75.535" enable-background="new 0 0 276.147 75.535"
	 xml:space="preserve">
<g>
	<path d="M32.496,43.992c-0.836,1.016-1.992,1.523-3.469,1.523c-1.359,0-2.396-0.392-3.111-1.172
		c-0.715-0.781-1.08-1.927-1.096-3.435V32.6h3.387v8.201c0,1.322,0.602,1.982,1.805,1.982c1.148,0,1.938-0.398,2.367-1.197V32.6
		h3.398v12.679H32.59L32.496,43.992z"/>
	<path d="M45.199,41.777c0-0.414-0.205-0.74-0.615-0.979s-1.068-0.45-1.975-0.639c-3.016-0.634-4.523-1.914-4.523-3.844
		c0-1.125,0.467-2.064,1.4-2.818c0.933-0.754,2.154-1.131,3.662-1.131c1.609,0,2.896,0.379,3.861,1.137
		c0.965,0.758,1.447,1.742,1.447,2.953H45.07c0-0.484-0.156-0.885-0.469-1.201S43.8,34.78,43.136,34.78
		c-0.57,0-1.012,0.129-1.324,0.387s-0.469,0.586-0.469,0.984c0,0.375,0.178,0.678,0.533,0.908s0.955,0.43,1.799,0.598
		c0.844,0.168,1.555,0.357,2.133,0.568c1.789,0.656,2.684,1.792,2.684,3.41c0,1.156-0.496,2.092-1.488,2.807
		c-0.992,0.715-2.273,1.072-3.844,1.072c-1.063,0-2.006-0.188-2.83-0.568c-0.824-0.379-1.471-0.897-1.939-1.559
		c-0.468-0.66-0.703-1.373-0.703-2.139h3.211c0.031,0.602,0.254,1.063,0.668,1.383s0.969,0.48,1.664,0.48
		c0.648,0,1.139-0.123,1.471-0.369S45.199,42.176,45.199,41.777z"/>
	<path d="M58.266,43.992c-0.836,1.016-1.992,1.523-3.469,1.523c-1.359,0-2.396-0.392-3.111-1.172
		c-0.715-0.781-1.08-1.927-1.096-3.435V32.6h3.387v8.201c0,1.322,0.602,1.982,1.805,1.982c1.148,0,1.938-0.398,2.367-1.197V32.6
		h3.398v12.679h-3.188L58.266,43.992z"/>
	<path d="M75.129,40.676l1.664-8.074h3.27l-3.234,12.679h-2.836l-2.402-7.979l-2.402,7.979h-2.824l-3.234-12.679h3.27l1.652,8.063
		l2.32-8.063h2.449L75.129,40.676z"/>
	<path d="M89.086,45.281c-0.157-0.305-0.27-0.684-0.34-1.137c-0.82,0.914-1.887,1.371-3.199,1.371c-1.242,0-2.272-0.359-3.088-1.078
		s-1.225-1.625-1.225-2.719c0-1.345,0.498-2.375,1.494-3.095c0.996-0.719,2.435-1.082,4.319-1.09h1.559v-0.727
		c0-0.586-0.151-1.055-0.451-1.406c-0.302-0.352-0.776-0.527-1.424-0.527c-0.571,0-1.019,0.137-1.342,0.41
		c-0.325,0.273-0.486,0.648-0.486,1.125h-3.387c0-0.734,0.227-1.414,0.68-2.039c0.453-0.625,1.094-1.115,1.922-1.471
		c0.828-0.355,1.758-0.533,2.79-0.533c1.562,0,2.802,0.393,3.721,1.178c0.917,0.785,1.377,1.889,1.377,3.311v5.497
		c0.007,1.203,0.176,2.112,0.504,2.729v0.198h-3.424V45.281z M86.286,42.926c0.499,0,0.961-0.111,1.383-0.334
		s0.733-0.521,0.938-0.896v-2.18H87.34c-1.696,0-2.599,0.586-2.707,1.758l-0.012,0.199c0,0.422,0.147,0.771,0.445,1.043
		C85.363,42.789,85.77,42.926,86.286,42.926z"/>
	<path d="M97.723,32.602l0.105,1.465c0.906-1.133,2.121-1.699,3.645-1.699c1.344,0,2.344,0.395,3,1.184
		c0.656,0.789,0.992,1.969,1.008,3.539v8.19h-3.387v-8.127c0-0.721-0.156-1.243-0.469-1.568c-0.313-0.325-0.832-0.487-1.559-0.487
		c-0.953,0-1.668,0.407-2.145,1.222v8.962h-3.387v-12.68L97.723,32.602L97.723,32.602z"/>
	<path d="M108.024,29.32c0-0.508,0.17-0.926,0.51-1.254c0.34-0.328,0.803-0.492,1.389-0.492c0.578,0,1.039,0.164,1.383,0.492
		c0.344,0.328,0.516,0.746,0.516,1.254c0,0.516-0.174,0.938-0.521,1.266c-0.347,0.328-0.807,0.492-1.377,0.492
		c-0.57,0-1.029-0.164-1.377-0.492C108.199,30.258,108.024,29.836,108.024,29.32z M111.622,45.281h-3.398v-12.68h3.398V45.281z"/>
	<path d="M120.247,45.516c-1.859,0-3.373-0.57-4.541-1.711s-1.752-2.66-1.752-4.559v-0.328c0-1.273,0.246-2.412,0.738-3.416
		c0.492-1.004,1.189-1.777,2.092-2.32c0.903-0.543,1.932-0.814,3.088-0.814c1.734,0,3.1,0.547,4.096,1.641
		c0.996,1.094,1.494,2.645,1.494,4.652v1.383h-8.074c0.109,0.828,0.439,1.492,0.99,1.992c0.551,0.5,1.248,0.75,2.092,0.75
		c1.305,0,2.324-0.474,3.059-1.418l1.664,1.862c-0.508,0.72-1.195,1.279-2.063,1.683C122.262,45.316,121.301,45.516,120.247,45.516z
		 M119.86,35.098c-0.672,0-1.217,0.228-1.635,0.683c-0.418,0.456-0.686,1.106-0.803,1.954h4.711v-0.271
		c-0.016-0.753-0.219-1.336-0.609-1.748C121.133,35.304,120.579,35.098,119.86,35.098z"/>
	<path d="M140.708,45.281c-0.156-0.305-0.27-0.684-0.34-1.137c-0.82,0.914-1.887,1.371-3.199,1.371
		c-1.242,0-2.271-0.359-3.088-1.078s-1.225-1.625-1.225-2.719c0-1.345,0.498-2.375,1.494-3.095c0.996-0.719,2.436-1.082,4.318-1.09
		h1.559v-0.727c0-0.586-0.15-1.055-0.451-1.406c-0.301-0.351-0.775-0.527-1.424-0.527c-0.57,0-1.018,0.137-1.342,0.41
		c-0.324,0.273-0.486,0.648-0.486,1.125h-3.387c0-0.734,0.227-1.414,0.68-2.039c0.453-0.625,1.094-1.115,1.922-1.471
		c0.828-0.356,1.758-0.533,2.789-0.533c1.563,0,2.803,0.393,3.721,1.178s1.377,1.889,1.377,3.311v5.497
		c0.008,1.203,0.176,2.112,0.504,2.729v0.198h-3.422V45.281z M137.907,42.926c0.5,0,0.961-0.111,1.383-0.334
		s0.734-0.521,0.938-0.896v-2.18h-1.266c-1.695,0-2.598,0.586-2.707,1.758l-0.012,0.199c0,0.422,0.148,0.771,0.445,1.043
		C136.985,42.789,137.391,42.926,137.907,42.926z"/>
	<path d="M150.118,42.551h6.199v2.73h-10.523v-2.063l5.965-7.888h-5.789v-2.73h10.16v1.995L150.118,42.551z"/>
	<path d="M169.864,39.059c0,2.031-0.434,3.615-1.301,4.752s-2.078,1.705-3.633,1.705c-1.375,0-2.473-0.527-3.293-1.582l-0.152,1.348
		h-3.047v-18h3.387v6.457c0.781-0.914,1.809-1.371,3.082-1.371c1.547,0,2.76,0.568,3.639,1.705c0.879,1.137,1.318,2.736,1.318,4.799
		L169.864,39.059L169.864,39.059z M166.477,38.8c0-1.285-0.203-2.223-0.609-2.815c-0.406-0.592-1.012-0.888-1.816-0.888
		c-1.078,0-1.82,0.443-2.227,1.328v5.021c0.414,0.893,1.164,1.34,2.25,1.34c1.094,0,1.813-0.541,2.156-1.622
		C166.395,40.646,166.477,39.857,166.477,38.8z"/>
	<path d="M177.786,45.516c-1.859,0-3.373-0.57-4.541-1.711s-1.752-2.66-1.752-4.559v-0.328c0-1.273,0.246-2.412,0.738-3.416
		s1.189-1.777,2.092-2.32c0.903-0.543,1.932-0.814,3.088-0.814c1.734,0,3.1,0.547,4.096,1.641c0.996,1.094,1.493,2.643,1.493,4.651
		v1.383h-8.074c0.109,0.828,0.439,1.492,0.99,1.992s1.248,0.75,2.092,0.75c1.305,0,2.324-0.473,3.059-1.418l1.664,1.863
		c-0.508,0.719-1.195,1.278-2.063,1.682C179.8,45.314,178.84,45.516,177.786,45.516z M177.399,35.098
		c-0.672,0-1.217,0.228-1.635,0.683c-0.418,0.456-0.686,1.106-0.803,1.954h4.711v-0.271c-0.016-0.753-0.219-1.336-0.609-1.748
		C178.672,35.304,178.118,35.098,177.399,35.098z"/>
	<path d="M191.79,41.777c0-0.414-0.205-0.74-0.615-0.979c-0.41-0.239-1.068-0.45-1.975-0.639c-3.016-0.634-4.523-1.914-4.523-3.844
		c0-1.125,0.467-2.064,1.4-2.818c0.933-0.754,2.154-1.131,3.662-1.131c1.609,0,2.896,0.379,3.861,1.137
		c0.965,0.758,1.447,1.742,1.447,2.953h-3.387c0-0.484-0.156-0.885-0.469-1.201s-0.801-0.475-1.465-0.475
		c-0.57,0-1.012,0.129-1.324,0.387s-0.469,0.586-0.469,0.984c0,0.375,0.178,0.678,0.533,0.908s0.955,0.43,1.799,0.598
		c0.844,0.168,1.555,0.357,2.133,0.568c1.789,0.656,2.684,1.792,2.684,3.41c0,1.156-0.496,2.092-1.488,2.807
		c-0.992,0.715-2.273,1.072-3.844,1.072c-1.063,0-2.006-0.188-2.83-0.568c-0.824-0.379-1.471-0.897-1.939-1.559
		c-0.468-0.66-0.703-1.373-0.703-2.139h3.211c0.031,0.602,0.254,1.063,0.668,1.383c0.414,0.32,0.969,0.48,1.664,0.48
		c0.648,0,1.139-0.123,1.471-0.369S191.79,42.176,191.79,41.777z"/>
	<path d="M201.317,29.484v3.117h2.168v2.484h-2.168v6.328c0,0.469,0.09,0.806,0.27,1.008c0.18,0.203,0.523,0.306,1.031,0.306
		c0.375,0,0.707-0.027,0.996-0.082v2.565c-0.664,0.203-1.348,0.306-2.051,0.306c-2.375,0-3.586-1.199-3.633-3.599v-6.832h-1.852
		v-2.484h1.852v-3.117H201.317z"/>
	<path d="M212.965,43.992c-0.836,1.016-1.992,1.523-3.469,1.523c-1.359,0-2.396-0.392-3.111-1.172
		c-0.715-0.781-1.08-1.927-1.096-3.435V32.6h3.387v8.201c0,1.322,0.602,1.982,1.805,1.982c1.148,0,1.938-0.398,2.367-1.197V32.6
		h3.398v12.679h-3.188L212.965,43.992z"/>
	<path fill="#02B25F" d="M218.546,44.104c0-0.383,0.129-0.692,0.386-0.931c0.258-0.237,0.58-0.356,0.967-0.356
		c0.394,0,0.719,0.119,0.976,0.356c0.258,0.237,0.386,0.548,0.386,0.931c0,0.375-0.127,0.683-0.381,0.916
		c-0.255,0.235-0.582,0.354-0.98,0.354c-0.393,0-0.716-0.118-0.971-0.354C218.673,44.785,218.546,44.479,218.546,44.104z"/>
	<path fill="#02B25F" d="M227.52,43.514c0.443,0,0.803-0.121,1.08-0.365c0.276-0.244,0.42-0.567,0.432-0.971h2.249
		c-0.006,0.607-0.172,1.166-0.498,1.672c-0.326,0.506-0.773,0.898-1.341,1.18c-0.567,0.279-1.193,0.418-1.88,0.418
		c-1.284,0-2.297-0.407-3.038-1.225c-0.741-0.816-1.112-1.943-1.112-3.383v-0.156c0-1.385,0.368-2.488,1.104-3.313
		c0.735-0.825,1.745-1.237,3.029-1.237c1.123,0,2.024,0.319,2.702,0.959c0.678,0.639,1.022,1.49,1.033,2.551h-2.249
		c-0.012-0.467-0.155-0.847-0.432-1.139s-0.643-0.438-1.096-0.438c-0.56,0-0.981,0.204-1.267,0.612
		c-0.285,0.407-0.427,1.067-0.427,1.982v0.249c0,0.926,0.141,1.591,0.423,1.995C226.514,43.311,226.945,43.514,227.52,43.514z"/>
	<path fill="#02B25F" d="M232.702,40.707c0-0.891,0.172-1.686,0.515-2.382c0.343-0.697,0.837-1.237,1.481-1.619
		c0.644-0.382,1.394-0.573,2.246-0.573c1.211,0,2.2,0.371,2.967,1.112c0.767,0.741,1.194,1.749,1.283,3.021l0.016,0.614
		c0,1.378-0.384,2.483-1.153,3.315c-0.769,0.834-1.802,1.25-3.097,1.25s-2.328-0.416-3.1-1.245c-0.772-0.83-1.158-1.959-1.158-3.388
		V40.707z M235.1,40.878c0,0.854,0.161,1.506,0.482,1.958c0.32,0.451,0.779,0.678,1.377,0.678c0.582,0,1.035-0.224,1.361-0.67
		c0.327-0.445,0.49-1.16,0.49-2.141c0-0.837-0.163-1.484-0.49-1.945c-0.326-0.46-0.785-0.69-1.377-0.69
		c-0.587,0-1.041,0.229-1.361,0.686C235.261,39.211,235.1,39.919,235.1,40.878z"/>
	<path fill="#02B25F" d="M245.363,36.3l0.075,1.004c0.636-0.78,1.496-1.17,2.581-1.17c1.156,0,1.95,0.457,2.382,1.37
		c0.631-0.913,1.53-1.37,2.698-1.37c0.974,0,1.699,0.284,2.175,0.851c0.476,0.567,0.714,1.421,0.714,2.561v5.735h-2.407v-5.739
		c0-0.511-0.1-0.884-0.299-1.12c-0.199-0.236-0.551-0.354-1.055-0.354c-0.719,0-1.217,0.344-1.494,1.032l0.009,6.182h-2.399V39.55
		c0-0.521-0.102-0.897-0.307-1.131c-0.205-0.233-0.554-0.35-1.046-0.35c-0.681,0-1.173,0.283-1.478,0.849v6.365h-2.398V36.3H245.363
		z"/>
	<path fill="#02B25F" d="M258.379,44.104c0-0.383,0.129-0.692,0.386-0.931c0.258-0.237,0.58-0.356,0.968-0.356
		c0.393,0,0.718,0.119,0.975,0.356c0.258,0.237,0.387,0.548,0.387,0.931c0,0.375-0.128,0.683-0.383,0.916
		c-0.254,0.235-0.58,0.354-0.979,0.354c-0.394,0-0.717-0.118-0.972-0.354C258.506,44.785,258.379,44.479,258.379,44.104z"/>
	<path fill="#02B25F" d="M271.704,40.873c0,1.384-0.313,2.492-0.941,3.324c-0.628,0.834-1.477,1.25-2.545,1.25
		c-0.907,0-1.641-0.315-2.199-0.946v4.233h-2.398V36.3h2.225l0.082,0.88c0.582-0.697,1.34-1.046,2.275-1.046
		c1.106,0,1.967,0.41,2.581,1.229c0.614,0.819,0.921,1.948,0.921,3.387L271.704,40.873L271.704,40.873z M269.305,40.689
		c0-0.838-0.148-1.483-0.444-1.939c-0.296-0.455-0.726-0.683-1.29-0.683c-0.753,0-1.271,0.289-1.553,0.867v3.688
		c0.293,0.595,0.816,0.893,1.568,0.893C268.733,43.514,269.305,42.572,269.305,40.689z"/>
	<path fill="#02B25F" d="M276.147,45.281h-2.407v-12.75h2.407V45.281z"/>
</g>
<g>
	<path fill="#DADADA" d="M73.22,52.205l0.062,0.826c0.524-0.643,1.233-0.963,2.126-0.963c0.953,0,1.606,0.375,1.962,1.127
		c0.52-0.752,1.26-1.127,2.222-1.127c0.802,0,1.399,0.232,1.791,0.699c0.392,0.469,0.588,1.172,0.588,2.109v4.725h-1.982v-4.729
		c0-0.42-0.082-0.729-0.246-0.922c-0.164-0.194-0.454-0.291-0.868-0.291c-0.592,0-1.002,0.283-1.23,0.85l0.007,5.092h-1.976V54.88
		c0-0.43-0.084-0.739-0.253-0.933c-0.168-0.191-0.456-0.287-0.861-0.287c-0.561,0-0.966,0.232-1.217,0.699v5.24h-1.976v-7.396
		L73.22,52.205L73.22,52.205z"/>
	<path fill="#DADADA" d="M87.774,59.602c-0.091-0.178-0.157-0.397-0.198-0.662c-0.479,0.533-1.101,0.799-1.866,0.799
		c-0.725,0-1.325-0.209-1.801-0.629c-0.476-0.418-0.714-0.947-0.714-1.586c0-0.783,0.291-1.385,0.872-1.805
		c0.581-0.419,1.421-0.631,2.519-0.636h0.909v-0.424c0-0.343-0.088-0.615-0.263-0.82c-0.175-0.204-0.452-0.308-0.831-0.308
		c-0.333,0-0.594,0.08-0.783,0.238c-0.189,0.16-0.284,0.379-0.284,0.656h-1.976c0-0.429,0.132-0.824,0.396-1.189
		c0.264-0.363,0.638-0.649,1.121-0.856c0.483-0.208,1.025-0.312,1.627-0.312c0.912,0,1.635,0.229,2.17,0.687
		c0.536,0.459,0.803,1.103,0.803,1.933v3.205c0.004,0.703,0.103,1.232,0.294,1.594v0.115H87.774z M86.14,58.229
		c0.292,0,0.561-0.064,0.807-0.195c0.246-0.129,0.428-0.305,0.547-0.521V56.24h-0.738c-0.989,0-1.515,0.342-1.579,1.025
		l-0.007,0.115c0,0.246,0.086,0.449,0.26,0.607C85.604,58.148,85.839,58.229,86.14,58.229z"/>
	<path fill="#DADADA" d="M95.15,54.059c-0.269-0.037-0.506-0.056-0.711-0.056c-0.748,0-1.237,0.253-1.47,0.759v4.84h-1.976v-7.396
		h1.866l0.055,0.882c0.396-0.679,0.946-1.02,1.647-1.02c0.219,0,0.424,0.029,0.615,0.09L95.15,54.059z"/>
	<path fill="#DADADA" d="M98.787,56.635l-0.711,0.711v2.256H96.1v-10.5h1.976v5.817l0.383-0.491l1.894-2.223h2.372l-2.673,3.083
		l2.905,4.313h-2.27L98.787,56.635z"/>
	<path fill="#DADADA" d="M107.865,59.602c-0.091-0.178-0.157-0.397-0.198-0.662c-0.479,0.533-1.101,0.799-1.866,0.799
		c-0.725,0-1.325-0.209-1.801-0.629c-0.476-0.418-0.714-0.947-0.714-1.586c0-0.783,0.291-1.385,0.872-1.805
		c0.581-0.419,1.421-0.631,2.519-0.636h0.909v-0.424c0-0.343-0.088-0.615-0.263-0.82c-0.175-0.204-0.452-0.308-0.831-0.308
		c-0.333,0-0.594,0.08-0.783,0.238c-0.189,0.16-0.284,0.379-0.284,0.656h-1.976c0-0.429,0.132-0.824,0.396-1.189
		c0.264-0.363,0.638-0.649,1.121-0.856c0.483-0.208,1.025-0.312,1.627-0.312c0.912,0,1.635,0.229,2.17,0.687
		c0.536,0.459,0.803,1.103,0.803,1.933v3.205c0.004,0.703,0.103,1.232,0.294,1.594v0.115H107.865z M106.231,58.229
		c0.292,0,0.561-0.064,0.807-0.195c0.246-0.129,0.428-0.305,0.547-0.521V56.24h-0.738c-0.989,0-1.515,0.342-1.579,1.025
		l-0.007,0.115c0,0.246,0.086,0.449,0.26,0.607C105.695,58.148,105.93,58.229,106.231,58.229z"/>
	<path fill="#DADADA" d="M120.689,55.273h-3.938v2.681h4.621v1.647H114.7v-9.953h6.658v1.66h-4.607v2.373h3.938V55.273z"/>
	<path fill="#DADADA" d="M130.109,49.648v6.556c0,1.089-0.341,1.95-1.022,2.584s-1.612,0.95-2.792,0.95
		c-1.162,0-2.085-0.309-2.769-0.924c-0.684-0.614-1.032-1.461-1.046-2.535v-6.631h2.051v6.568c0,0.651,0.156,1.127,0.468,1.426
		s0.744,0.447,1.295,0.447c1.153,0,1.739-0.605,1.757-1.818v-6.623H130.109z"/>
	<path fill="#DADADA" d="M135.475,55.958h-1.634v3.644h-2.051v-9.953h3.698c1.176,0,2.083,0.263,2.721,0.787
		c0.638,0.523,0.957,1.265,0.957,2.221c0,0.68-0.147,1.246-0.441,1.699s-0.739,0.814-1.336,1.084l2.153,4.066v0.096h-2.201
		L135.475,55.958z M133.841,54.297h1.654c0.515,0,0.914-0.131,1.196-0.395c0.283-0.262,0.424-0.623,0.424-1.082
		c0-0.471-0.133-0.84-0.4-1.107c-0.267-0.268-0.676-0.402-1.227-0.402h-1.647V54.297z"/>
	<path fill="#DADADA" d="M148.901,54.852c0,0.979-0.174,1.838-0.52,2.576c-0.346,0.738-0.842,1.309-1.486,1.709
		c-0.646,0.401-1.385,0.602-2.219,0.602c-0.824,0-1.561-0.197-2.208-0.594c-0.647-0.397-1.148-0.963-1.504-1.699
		c-0.355-0.735-0.536-1.582-0.54-2.539v-0.492c0-0.979,0.177-1.842,0.529-2.588c0.354-0.744,0.853-1.316,1.498-1.715
		c0.645-0.399,1.381-0.6,2.211-0.6s1.566,0.199,2.211,0.6c0.646,0.397,1.145,0.971,1.498,1.715c0.353,0.746,0.529,1.605,0.529,2.58
		L148.901,54.852L148.901,54.852z M146.823,54.398c0-1.043-0.188-1.836-0.561-2.379c-0.373-0.541-0.906-0.813-1.6-0.813
		c-0.688,0-1.219,0.268-1.593,0.805c-0.374,0.534-0.563,1.319-0.567,2.354v0.484c0,1.018,0.188,1.805,0.561,2.365
		s0.912,0.842,1.613,0.842c0.688,0,1.217-0.271,1.586-0.811c0.369-0.541,0.557-1.328,0.561-2.362V54.398z"/>
	<path fill="#DADADA" d="M154.103,56.137h-3.849v-1.594h3.849V56.137z"/>
	<path fill="#DADADA" d="M163.694,58.344c-0.369,0.442-0.891,0.785-1.565,1.028c-0.675,0.244-1.422,0.366-2.242,0.366
		c-0.861,0-1.616-0.188-2.267-0.563c-0.648-0.377-1.15-0.922-1.504-1.638c-0.353-0.717-0.533-1.557-0.543-2.521v-0.678
		c0-0.992,0.168-1.854,0.502-2.581c0.336-0.728,0.818-1.282,1.449-1.668c0.632-0.385,1.371-0.577,2.219-0.577
		c1.18,0,2.104,0.281,2.769,0.846c0.665,0.563,1.06,1.381,1.183,2.457h-1.996c-0.092-0.569-0.293-0.986-0.605-1.252
		c-0.312-0.265-0.741-0.396-1.288-0.396c-0.697,0-1.228,0.263-1.593,0.786c-0.365,0.523-0.549,1.304-0.554,2.338v0.637
		c0,1.043,0.198,1.832,0.595,2.364c0.397,0.533,0.978,0.8,1.743,0.8c0.771,0,1.319-0.164,1.647-0.492v-1.715h-1.866v-1.512h3.917
		L163.694,58.344L163.694,58.344z"/>
	<path fill="#DADADA" d="M170.974,57.551h-3.596l-0.684,2.051h-2.181l3.705-9.953h1.9l3.726,9.953h-2.181L170.974,57.551z
		 M167.932,55.891h2.488l-1.251-3.727L167.932,55.891z"/>
	<path fill="#DADADA" d="M176.949,57.954h5.018v1.647h-7.581v-1.203l4.922-7.09h-4.915v-1.66h7.465v1.176L176.949,57.954z"/>
	<path fill="#DADADA" d="M191.906,56.99c0-0.389-0.137-0.686-0.41-0.893s-0.766-0.427-1.477-0.656s-1.274-0.457-1.688-0.68
		c-1.131-0.611-1.695-1.435-1.695-2.469c0-0.538,0.151-1.018,0.455-1.439c0.303-0.42,0.738-0.75,1.305-0.986
		c0.568-0.237,1.205-0.355,1.911-0.355c0.711,0,1.345,0.129,1.9,0.387c0.556,0.258,0.987,0.621,1.296,1.09
		c0.307,0.471,0.461,1.004,0.461,1.601h-2.051c0-0.456-0.144-0.81-0.431-1.063c-0.287-0.252-0.69-0.379-1.21-0.379
		c-0.502,0-0.891,0.105-1.169,0.318c-0.278,0.211-0.417,0.49-0.417,0.838c0,0.322,0.163,0.594,0.488,0.813
		c0.326,0.219,0.807,0.424,1.439,0.615c1.166,0.351,2.017,0.785,2.55,1.306c0.533,0.521,0.8,1.167,0.8,1.94
		c0,0.861-0.326,1.537-0.978,2.026c-0.651,0.49-1.528,0.735-2.632,0.735c-0.766,0-1.463-0.141-2.092-0.422
		c-0.629-0.278-1.108-0.664-1.439-1.15c-0.33-0.486-0.495-1.053-0.495-1.695h2.058c0,1.1,0.656,1.647,1.969,1.647
		c0.488,0,0.868-0.101,1.142-0.298C191.769,57.622,191.906,57.346,191.906,56.99z"/>
	<path fill="#DADADA" d="M201.879,55.973c0,1.139-0.259,2.051-0.775,2.737c-0.518,0.687-1.217,1.028-2.096,1.028
		c-0.748,0-1.352-0.26-1.812-0.779v3.486h-1.976v-10.24h1.832l0.068,0.725c0.479-0.574,1.104-0.861,1.873-0.861
		c0.912,0,1.62,0.338,2.126,1.013c0.506,0.675,0.759,1.604,0.759,2.789L201.879,55.973L201.879,55.973z M199.904,55.82
		c0-0.689-0.122-1.223-0.366-1.598c-0.243-0.375-0.598-0.563-1.063-0.563c-0.619,0-1.046,0.236-1.278,0.713v3.038
		c0.241,0.489,0.673,0.733,1.292,0.733C199.432,58.146,199.904,57.371,199.904,55.82z"/>
	<path fill="#DADADA" d="M203.206,58.631c0-0.314,0.105-0.568,0.318-0.766c0.211-0.196,0.477-0.295,0.796-0.295
		c0.323,0,0.591,0.099,0.804,0.295c0.211,0.195,0.317,0.451,0.317,0.766c0,0.311-0.104,0.563-0.314,0.756s-0.479,0.291-0.807,0.291
		c-0.323,0-0.591-0.098-0.8-0.291C203.311,59.191,203.206,58.939,203.206,58.631z"/>
	<path fill="#DADADA" d="M212.749,52.205v7.8c0,0.815-0.217,1.45-0.649,1.904c-0.433,0.452-1.058,0.68-1.873,0.68
		c-0.342,0-0.667-0.039-0.978-0.116v-1.564c0.236,0.041,0.444,0.063,0.622,0.063c0.597,0,0.896-0.316,0.896-0.951v-7.813h1.982
		V52.205z M210.609,50.291c0-0.296,0.099-0.54,0.298-0.73c0.197-0.191,0.468-0.287,0.81-0.287c0.342,0,0.612,0.096,0.81,0.287
		c0.199,0.19,0.298,0.436,0.298,0.73c0,0.301-0.102,0.547-0.304,0.738c-0.203,0.191-0.471,0.287-0.804,0.287
		s-0.601-0.096-0.804-0.287S210.609,50.592,210.609,50.291z"/>
	<path fill="#DADADA" d="M214.396,58.631c0-0.314,0.106-0.568,0.317-0.766c0.213-0.196,0.479-0.295,0.797-0.295
		c0.324,0,0.592,0.099,0.803,0.295c0.213,0.195,0.318,0.451,0.318,0.766c0,0.311-0.105,0.563-0.314,0.756s-0.479,0.291-0.807,0.291
		c-0.324,0-0.59-0.098-0.8-0.291C214.5,59.191,214.396,58.939,214.396,58.631z"/>
</g>
<polygon fill="#02B25F" points="61.501,48.268 37.768,72 3.535,37.768 37.768,3.535 63.501,29.268 67.036,29.268 37.768,0 0,37.768 
	37.768,75.535 65.036,48.268 "/>
</svg>
